<?xml version="1.0" standalone="no"?>
<!DOCTYPE svg PUBLIC "-//W3C//DTD SVG 20010904//EN"
 "http://www.w3.org/TR/2001/REC-SVG-20010904/DTD/svg10.dtd">
<svg version="1.0" xmlns="http://www.w3.org/2000/svg"
 width="512.000000pt" height="512.000000pt" viewBox="0 0 512.000000 512.000000"
 preserveAspectRatio="xMidYMid meet">

<g transform="translate(0.000000,512.000000) scale(0.100000,-0.100000)"
fill="#ffffff" stroke="none">
<path d="M2170 5104 c-196 -51 -350 -215 -383 -407 -6 -37 -16 -67 -22 -67 -5
0 -32 7 -60 16 -69 22 -196 22 -270 0 -95 -28 -155 -64 -226 -135 -110 -110
-149 -210 -149 -384 0 -100 -1 -109 -17 -102 -35 15 -173 18 -221 5 -165 -44
-291 -178 -322 -340 -6 -33 -10 -461 -10 -1169 0 -914 3 -1138 14 -1231 44
-348 129 -586 285 -795 163 -220 422 -377 732 -443 165 -35 278 -45 514 -46
182 0 251 3 330 18 358 66 654 216 887 451 114 115 138 149 484 695 407 641
512 796 793 1165 114 149 136 300 67 451 -37 80 -128 167 -218 208 -162 75
-331 67 -469 -20 -46 -29 -316 -293 -412 -404 l-56 -65 -1 786 c0 852 1 828
-55 939 -53 104 -170 200 -284 234 -67 20 -192 21 -254 2 l-47 -14 0 107 c0
62 -6 131 -15 164 -72 276 -353 450 -615 381z m224 -318 c29 -17 55 -44 73
-74 l28 -47 5 -962 c5 -952 5 -962 26 -989 67 -90 184 -93 249 -6 19 26 20 47
25 692 6 738 2 702 72 752 26 18 46 23 98 23 52 0 72 -5 98 -23 71 -51 66 18
72 -1032 l5 -945 22 -41 c44 -82 114 -119 214 -112 75 5 114 36 190 147 158
234 459 547 549 571 84 23 202 -38 212 -109 6 -42 -13 -83 -76 -160 -177 -219
-373 -507 -790 -1166 -136 -214 -268 -421 -294 -459 -174 -260 -479 -450 -837
-523 -71 -14 -136 -18 -305 -17 -331 1 -516 36 -720 136 -92 46 -116 64 -200
147 -159 160 -236 325 -297 636 -16 82 -18 191 -20 1248 -4 1285 -8 1204 62
1247 59 36 132 20 174 -39 20 -28 21 -40 21 -468 0 -410 2 -441 20 -480 20
-46 64 -79 116 -89 46 -8 116 25 142 68 21 34 21 43 28 764 7 815 4 783 78
839 83 63 190 63 264 -1 72 -62 70 -34 76 -837 7 -789 4 -753 68 -799 24 -17
47 -23 85 -23 59 0 96 22 128 76 20 33 20 57 25 989 6 1054 1 979 68 1043 65
62 164 71 246 23z"/>
</g>
</svg>
