<?xml version="1.0" standalone="no"?>
<!DOCTYPE svg PUBLIC "-//W3C//DTD SVG 20010904//EN"
 "http://www.w3.org/TR/2001/REC-SVG-20010904/DTD/svg10.dtd">
<svg version="1.0" xmlns="http://www.w3.org/2000/svg"
 width="512.000000pt" height="512.000000pt" viewBox="0 0 512.000000 512.000000"
 preserveAspectRatio="xMidYMid meet">

<g transform="translate(0.000000,512.000000) scale(0.100000,-0.100000)"
fill="#ffffff" stroke="none">
<path d="M2650 4711 c-94 -31 -186 -116 -214 -198 -21 -61 -20 -120 5 -521 11
-183 19 -335 17 -337 -2 -3 -26 3 -53 11 -135 42 -300 -29 -365 -156 -11 -22
-22 -40 -23 -40 -2 0 -22 9 -45 20 -145 70 -333 6 -412 -141 l-35 -64 -3 -609
-3 -609 146 -365 146 -364 -42 -36 c-23 -20 -52 -59 -65 -86 l-24 -51 0 -438
0 -438 25 -24 24 -25 831 0 831 0 24 25 25 24 0 432 c0 299 -4 444 -12 470 -6
22 -27 57 -46 80 l-35 41 287 287 287 288 -3 499 -3 499 -27 52 c-49 92 -120
148 -222 174 -25 6 -46 16 -46 23 0 6 38 229 85 494 47 266 85 512 85 545 0
115 -77 229 -189 280 -72 33 -188 31 -263 -6 -61 -30 -116 -84 -146 -144 -11
-21 -38 -130 -61 -242 -22 -112 -42 -206 -44 -208 -2 -2 -9 106 -16 239 -21
408 -29 446 -110 531 -57 61 -123 90 -211 93 -41 2 -86 0 -100 -5z m137 -162
c35 -13 71 -46 89 -82 11 -21 23 -181 49 -650 20 -342 40 -634 46 -649 22 -55
110 -59 137 -5 6 12 57 253 113 536 107 535 111 550 170 594 96 70 239 -7 239
-129 0 -21 -41 -273 -91 -559 -69 -390 -95 -523 -108 -533 -52 -41 -97 -94
-120 -142 -25 -54 -26 -60 -29 -297 -3 -191 -6 -243 -16 -243 -33 0 -157 -74
-196 -116 -57 -62 -99 -155 -107 -237 -5 -61 -4 -67 20 -91 51 -51 137 -17
137 55 0 122 117 239 238 239 16 0 40 9 53 19 24 19 24 19 29 309 5 274 6 292
26 318 39 53 71 69 134 69 63 0 95 -16 134 -69 20 -27 21 -41 24 -479 l3 -451
-298 -298 -298 -298 -596 0 -595 0 -147 368 -147 367 0 93 c0 71 3 92 13 88 6
-2 36 -12 66 -22 136 -42 295 27 361 156 11 22 23 40 26 40 2 0 23 -9 44 -20
140 -71 331 -6 410 141 l35 64 3 360 c3 311 -1 427 -28 849 -16 268 -30 514
-30 545 0 74 24 119 80 148 47 25 84 29 127 12z m-403 -1043 c18 -8 46 -31 62
-52 l29 -37 0 -378 c0 -366 -1 -378 -21 -405 -39 -53 -71 -69 -134 -69 -63 0
-95 16 -134 69 -20 26 -21 42 -24 379 -2 194 0 366 3 384 17 92 128 147 219
109z m-456 -173 c14 -10 35 -32 46 -47 20 -27 21 -39 21 -406 0 -367 -1 -379
-21 -406 -39 -53 -71 -69 -134 -69 -63 0 -95 16 -134 69 -20 26 -21 42 -24
379 -2 194 0 366 3 384 7 40 49 91 90 109 40 19 120 12 153 -13z m1327 -2158
l25 -24 0 -376 0 -375 -720 0 -720 0 0 375 0 376 25 24 24 25 671 0 671 0 24
-25z"/>
</g>
</svg>
